<svg width="512" height="384" viewBox="0 0 512 384" fill="none" xmlns="http://www.w3.org/2000/svg">
  <defs>
    <linearGradient id="plate" x1="64" y1="48" x2="448" y2="336" gradientUnits="userSpaceOnUse">
      <stop offset="0" stop-color="#1E293B"/>
      <stop offset="1" stop-color="#0F172A"/>
    </linearGradient>
    <linearGradient id="glow" x1="164" y1="124" x2="348" y2="260" gradientUnits="userSpaceOnUse">
      <stop offset="0" stop-color="#6366F1"/>
      <stop offset="1" stop-color="#38BDF8"/>
    </linearGradient>
  </defs>
  <rect x="32" y="24" width="448" height="336" rx="32" fill="url(#plate)"/>
  <rect x="68" y="64" width="72" height="72" rx="18" fill="#334155"/>
  <rect x="152" y="64" width="72" height="72" rx="18" fill="#334155"/>
  <rect x="236" y="64" width="72" height="72" rx="18" fill="#334155"/>
  <rect x="320" y="64" width="72" height="72" rx="18" fill="#334155"/>
  <path d="M214 136C214 126.745 223.745 121.047 231.5 125.5L314.5 173.5C321.5 177.836 321.5 188.164 314.5 192.5L231.5 240.5C223.745 244.953 214 239.255 214 230V136Z" fill="url(#glow)"/>
</svg>
